<?xml version="1.0" encoding="UTF-8"?>
<svg width="540px" height="70px" viewBox="0 0 540 70" version="1.1" xmlns="http://www.w3.org/2000/svg" xmlns:xlink="http://www.w3.org/1999/xlink">
    <title>Logo flattened</title>
    <defs>
        <path d="M18.8779297,50 L22.8647461,27.3964844 C23.6621094,22.7856445 26.4355469,20.5322266 29.8330078,20.5322266 C33.1611328,20.5322266 35.0332031,22.8203125 35.0332031,25.59375 C35.0332031,26.5644531 34.9638672,27.3618164 34.8251953,28.2285156 L30.9770508,50 L43.2495117,50 L47.409668,26.4604492 C47.6523438,25.1777344 47.7910156,23.9990234 47.7910156,22.265625 C47.7910156,15.3320312 43.6308594,10.5131836 36.1425781,10.5131836 C30.734375,10.5131836 26.8515625,13.5292969 24.9101562,17.6894531 L24.2514648,17.6894531 L25.3608398,11.4145508 L13.4350586,11.4145508 L6.64013672,50 L18.8779297,50 Z M84.5043945,50 L86.0991211,41.0209961 L77.2587891,41.0209961 C75.2133789,41.0209961 74.1386719,40.0849609 74.1386719,38.3515625 C74.1386719,38.1782227 74.1386719,38.0395508 74.2080078,37.5888672 L77.1201172,21.0522461 L90.2939453,21.0522461 L91.9233398,11.9345703 L78.4375,11.9345703 L80.5175781,-0.0258789062 L68.5917969,-0.0258789062 L66.5117188,11.9345703 L56.5966797,11.9345703 L54.9672852,21.0522461 L64.8823242,21.0522461 L62.0048828,37.3808594 C61.7275391,38.90625 61.5888672,40.2929688 61.5888672,41.5063477 C61.5888672,47.1572266 65.159668,50 72.2666016,50 L84.5043945,50 Z M123.228516,50 L124.788574,41.6796875 L114.041504,41.6796875 L115.601562,32.5966797 C116.745605,25.9750977 121.183105,22.4736328 128.463379,22.4736328 C131.930176,22.4736328 134.738281,23.1669922 136.991699,24.6230469 L139.279785,12.315918 C137.338379,11.0678711 134.946289,10.3745117 132.450195,10.3745117 C126.209961,10.3745117 122.223145,13.8066406 119.796387,21.3295898 L117.750977,21.3295898 L119.484375,11.4145508 L100.035645,11.4145508 L98.5795898,19.7348633 L106.241211,19.7348633 L102.393066,41.6796875 L95.4941406,41.6796875 L93.934082,50 L123.228516,50 Z M148.986816,62.7578125 L152.522949,43.1010742 L153.285645,43.1010742 C153.666992,47.3999023 157.584473,50.5893555 163.686035,50.5893555 C171.382324,50.5893555 176.825195,44.6611328 178.731934,33.8447266 L179.841309,27.5004883 C180.118652,25.8710938 180.257324,24.3457031 180.257324,22.9589844 C180.257324,15.0200195 174.779785,10.7558594 168.331543,10.7558594 C163.755371,10.7558594 159.283203,13.4946289 157.549805,18.4868164 L156.787109,18.4868164 L158.035156,11.4145508 L145.242676,11.4145508 L136.194336,62.7578125 L148.986816,62.7578125 Z M159.421875,40.6396484 C155.989746,40.6396484 153.840332,38.2128906 153.840332,35.4394531 C153.840332,34.46875 153.875,33.6713867 154.013672,32.8046875 L155.088379,26.7724609 C155.851074,22.5083008 158.624512,20.3242188 161.813965,20.3242188 C165.246094,20.3242188 167.395508,22.7509766 167.395508,25.5244141 C167.395508,26.4951172 167.326172,27.2924805 167.1875,28.1591797 L166.112793,34.1914062 C165.350098,38.4555664 162.611328,40.6396484 159.421875,40.6396484 Z M211.007812,50 L212.567871,41.6796875 L201.820801,41.6796875 L203.380859,32.5966797 C204.524902,25.9750977 208.962402,22.4736328 216.242676,22.4736328 C219.709473,22.4736328 222.517578,23.1669922 224.770996,24.6230469 L227.059082,12.315918 C225.117676,11.0678711 222.725586,10.3745117 220.229492,10.3745117 C213.989258,10.3745117 210.002441,13.8066406 207.575684,21.3295898 L205.530273,21.3295898 L207.263672,11.4145508 L187.814941,11.4145508 L186.358887,19.7348633 L194.020508,19.7348633 L190.172363,41.6796875 L183.273438,41.6796875 L181.713379,50 L211.007812,50 Z M260.062988,50 L261.657715,41.0209961 L252.817383,41.0209961 C250.771973,41.0209961 249.697266,40.0849609 249.697266,38.3515625 C249.697266,38.1782227 249.697266,38.0395508 249.766602,37.5888672 L252.678711,21.0522461 L265.852539,21.0522461 L267.481934,11.9345703 L253.996094,11.9345703 L256.076172,-0.0258789062 L244.150391,-0.0258789062 L242.070312,11.9345703 L232.155273,11.9345703 L230.525879,21.0522461 L240.440918,21.0522461 L237.563477,37.3808594 C237.286133,38.90625 237.147461,40.2929688 237.147461,41.5063477 C237.147461,47.1572266 240.718262,50 247.825195,50 L260.062988,50 Z M298.787109,50 L300.347168,41.6796875 L289.600098,41.6796875 L291.160156,32.5966797 C292.304199,25.9750977 296.741699,22.4736328 304.021973,22.4736328 C307.48877,22.4736328 310.296875,23.1669922 312.550293,24.6230469 L314.838379,12.315918 C312.896973,11.0678711 310.504883,10.3745117 308.008789,10.3745117 C301.768555,10.3745117 297.781738,13.8066406 295.35498,21.3295898 L293.30957,21.3295898 L295.042969,11.4145508 L275.594238,11.4145508 L274.138184,19.7348633 L281.799805,19.7348633 L277.95166,41.6796875 L271.052734,41.6796875 L269.492676,50 L298.787109,50 Z" id="path-1"></path>
        <filter x="-2.9%" y="-4.8%" width="103.9%" height="119.1%" filterUnits="objectBoundingBox" id="filter-2">
            <feOffset dx="-6" dy="6" in="SourceAlpha" result="shadowOffsetOuter1"></feOffset>
            <feColorMatrix values="0 0 0 0 0.857747396   0 0 0 0 0.779554656   0 0 0 0 0.762248836  0 0 0 0.906722062 0" type="matrix" in="shadowOffsetOuter1" result="shadowMatrixOuter1"></feColorMatrix>
            <feOffset dx="-3" dy="3" in="SourceAlpha" result="shadowOffsetOuter2"></feOffset>
            <feColorMatrix values="0 0 0 0 1   0 0 0 0 1   0 0 0 0 1  0 0 0 1 0" type="matrix" in="shadowOffsetOuter2" result="shadowMatrixOuter2"></feColorMatrix>
            <feMerge>
                <feMergeNode in="shadowMatrixOuter1"></feMergeNode>
                <feMergeNode in="shadowMatrixOuter2"></feMergeNode>
            </feMerge>
        </filter>
    </defs>
    <g id="Logo-flattened" stroke="none" stroke-width="1" fill="none" fill-rule="evenodd">
        <g id="ntrprtr" fill-rule="nonzero">
            <use fill="black" fill-opacity="1" filter="url(#filter-2)" xlink:href="#path-1"></use>
            <use fill="#FF6B6B" xlink:href="#path-1"></use>
        </g>
        <path d="M354.378906,27 L354.378906,26.0478516 C354.102214,26.0152995 353.76652,25.9603678 353.371826,25.8830566 C352.977132,25.8057454 352.686198,25.7304688 352.499023,25.6572266 C352.189779,25.5270182 351.982259,25.3500163 351.876465,25.1262207 C351.770671,24.9024251 351.717773,24.644043 351.717773,24.3510742 L351.717773,24.3510742 L351.717773,10.7646484 L352.291504,10.7646484 C352.568197,10.7646484 352.897786,10.7768555 353.280273,10.8012695 C353.66276,10.8256836 353.984212,10.8541667 354.244629,10.8867188 C354.716634,10.9518229 355.231364,11.4075521 355.788818,12.2539062 C356.346273,13.1002604 356.751139,13.8937174 357.003418,14.6342773 L357.003418,14.6342773 L357.943359,14.6342773 L357.943359,9.67822266 L341.158691,9.67822266 L341.158691,14.6342773 L342.098633,14.6342773 C342.350911,13.8937174 342.755778,13.1002604 343.313232,12.2539062 C343.870687,11.4075521 344.385417,10.9518229 344.857422,10.8867188 C345.117839,10.8541667 345.43929,10.8256836 345.821777,10.8012695 C346.204264,10.7768555 346.533854,10.7646484 346.810547,10.7646484 L346.810547,10.7646484 L347.384277,10.7646484 L347.384277,24.4731445 C347.384277,24.7742513 347.33138,25.034668 347.225586,25.2543945 C347.119792,25.4741211 346.908203,25.6490885 346.59082,25.7792969 C346.436198,25.844401 346.145264,25.8993327 345.718018,25.9440918 C345.290771,25.9888509 344.959147,26.0234375 344.723145,26.0478516 L344.723145,26.0478516 L344.723145,27 L354.378906,27 Z M365.975586,27 L365.975586,26.1088867 C365.788411,26.0844727 365.595133,26.0437826 365.395752,25.9868164 C365.19637,25.9298503 365.035645,25.8647461 364.913574,25.7915039 C364.710124,25.6775716 364.571777,25.5331217 364.498535,25.3581543 C364.425293,25.1831868 364.388672,24.9451497 364.388672,24.644043 L364.388672,24.644043 L364.388672,18.0888672 C364.486328,17.9586589 364.606364,17.8081055 364.748779,17.637207 C364.891195,17.4663086 365.080404,17.2994792 365.316406,17.1367188 C365.584961,16.9495443 365.859619,16.8071289 366.140381,16.7094727 C366.421143,16.6118164 366.724284,16.5629883 367.049805,16.5629883 C367.627604,16.5629883 368.073161,16.7705078 368.386475,17.1855469 C368.699788,17.6005859 368.856445,18.2272135 368.856445,19.0654297 L368.856445,19.0654297 L368.856445,24.7783203 C368.856445,25.1119792 368.821859,25.3642578 368.752686,25.5351562 C368.683512,25.7060547 368.563477,25.836263 368.392578,25.9257812 C368.286784,25.9827474 368.124023,26.0234375 367.904297,26.0478516 C367.68457,26.0722656 367.493327,26.0926107 367.330566,26.1088867 L367.330566,26.1088867 L367.330566,27 L374.679199,27 L374.679199,26.1088867 C374.418783,26.0763346 374.199056,26.0356445 374.02002,25.9868164 C373.840983,25.9379883 373.678223,25.8810221 373.531738,25.815918 C373.287598,25.7101237 373.120768,25.5677083 373.03125,25.3886719 C372.941732,25.2096354 372.896973,24.9695638 372.896973,24.668457 L372.896973,24.668457 L372.896973,18.6870117 C372.896973,17.4500326 372.565348,16.453125 371.9021,15.6962891 C371.238851,14.9394531 370.248047,14.5610352 368.929688,14.5610352 C368.368164,14.5610352 367.845296,14.6302083 367.361084,14.7685547 C366.876872,14.906901 366.484212,15.0737305 366.183105,15.269043 C365.825033,15.4969076 365.521891,15.7227376 365.273682,15.9465332 C365.025472,16.1703288 364.746745,16.4205729 364.4375,16.6972656 L364.4375,16.6972656 L364.388672,16.6972656 L364.388672,8.29882812 L364.205566,8.10351562 L358.138672,8.42089844 L358.138672,9.31201172 C358.382812,9.32828776 358.659505,9.36694336 358.96875,9.42797852 C359.277995,9.48901367 359.513997,9.57242839 359.676758,9.67822266 C359.896484,9.82470703 360.067383,10.0444336 360.189453,10.3374023 C360.311523,10.6303711 360.372559,10.9070638 360.372559,11.1674805 L360.372559,11.1674805 L360.372559,24.7783203 C360.372559,25.0794271 360.325765,25.3215332 360.232178,25.5046387 C360.13859,25.6877441 359.961589,25.828125 359.701172,25.9257812 C359.546549,25.9827474 359.369548,26.0234375 359.170166,26.0478516 C358.970785,26.0722656 358.765299,26.0926107 358.553711,26.1088867 L358.553711,26.1088867 L358.553711,27 L365.975586,27 Z M382.943359,27.390625 C383.667643,27.390625 384.308512,27.3112793 384.865967,27.1525879 C385.423421,26.9938965 385.974772,26.7599284 386.52002,26.4506836 C387.032715,26.1577148 387.490479,25.8057454 387.893311,25.3947754 C388.296143,24.9838053 388.639974,24.5463867 388.924805,24.0825195 L388.924805,24.0825195 L387.99707,23.4111328 C387.565755,24.0540365 387.044922,24.5850423 386.43457,25.0041504 C385.824219,25.4232585 385.136556,25.6328125 384.371582,25.6328125 C382.971842,25.6328125 381.950521,25.1974284 381.307617,24.3266602 C380.664714,23.4558919 380.343262,22.1863607 380.343262,20.5180664 L380.343262,20.5180664 L388.595215,20.5180664 L388.595215,19.7246094 C388.595215,19.0328776 388.489421,18.3716634 388.277832,17.7409668 C388.066243,17.1102702 387.728516,16.5629883 387.264648,16.0991211 C386.784505,15.6108398 386.178223,15.2283529 385.445801,14.9516602 C384.713379,14.6749674 383.777507,14.5366211 382.638184,14.5366211 C381.596517,14.5366211 380.654541,14.7156576 379.812256,15.0737305 C378.969971,15.4318034 378.272135,15.8997396 377.71875,16.4775391 C377.157227,17.0716146 376.723877,17.7491048 376.418701,18.5100098 C376.113525,19.2709147 375.960938,20.0664062 375.960938,20.8964844 C375.960938,21.8160807 376.101318,22.6685384 376.38208,23.4538574 C376.662842,24.2391764 377.088053,24.9207357 377.657715,25.4985352 C378.227376,26.0763346 378.949626,26.5361328 379.824463,26.8779297 C380.6993,27.2197266 381.738932,27.390625 382.943359,27.390625 Z M380.343262,19.4926758 C380.375814,18.1173503 380.579264,17.1123047 380.953613,16.4775391 C381.327962,15.8427734 381.828451,15.5253906 382.455078,15.5253906 C382.821289,15.5253906 383.12443,15.6230469 383.364502,15.8183594 C383.604574,16.0136719 383.793783,16.3025716 383.932129,16.6850586 C384.054199,17.0105794 384.139648,17.4296875 384.188477,17.9423828 C384.237305,18.4550781 384.261719,18.9555664 384.261719,19.4438477 L384.261719,19.4438477 L380.343262,19.4926758 Z M406.112305,27 L406.112305,26.0478516 C405.84375,26.0315755 405.512126,25.9888509 405.117432,25.9196777 C404.722738,25.8505046 404.439941,25.7792969 404.269043,25.7060547 C403.959798,25.5758464 403.750244,25.4069824 403.640381,25.1994629 C403.530518,24.9919434 403.475586,24.7416992 403.475586,24.4487305 L403.475586,24.4487305 L403.475586,12.1806641 C403.475586,11.8958333 403.528483,11.6415202 403.634277,11.4177246 C403.740072,11.193929 403.95166,11.0291341 404.269043,10.9233398 C404.521322,10.8419596 404.830566,10.77889 405.196777,10.7341309 C405.562988,10.6893717 405.868164,10.6547852 406.112305,10.6303711 L406.112305,10.6303711 L406.112305,9.67822266 L396.505371,9.67822266 L396.505371,10.6303711 C396.782064,10.6629232 397.111654,10.7219238 397.494141,10.807373 C397.876628,10.8928223 398.165527,10.976237 398.36084,11.0576172 C398.670085,11.1878255 398.877604,11.358724 398.983398,11.5703125 C399.089193,11.781901 399.14209,12.0260417 399.14209,12.3027344 L399.14209,12.3027344 L399.14209,24.5830078 C399.14209,24.8922526 399.087158,25.1465658 398.977295,25.3459473 C398.867432,25.5453288 398.661947,25.7060547 398.36084,25.828125 C398.198079,25.8932292 397.903076,25.9420573 397.47583,25.9746094 C397.048584,26.0071615 396.725098,26.0315755 396.505371,26.0478516 L396.505371,26.0478516 L396.505371,27 L406.112305,27 Z M424.666992,27.0976562 L424.666992,14.7197266 C424.666992,13.6861979 424.730062,12.9029134 424.856201,12.369873 C424.98234,11.8368327 425.195964,11.4604492 425.49707,11.2407227 C425.838867,10.988444 426.221354,10.8297526 426.644531,10.7646484 C427.067708,10.6995443 427.393229,10.6547852 427.621094,10.6303711 L427.621094,10.6303711 L427.621094,9.67822266 L420.187012,9.67822266 L420.187012,10.6303711 C420.471842,10.6791992 420.846191,10.770752 421.310059,10.9050293 C421.773926,11.0393066 422.123861,11.2000326 422.359863,11.387207 C422.66097,11.6313477 422.880697,12.0077311 423.019043,12.5163574 C423.157389,13.0249837 423.226562,13.8001302 423.226562,14.8417969 L423.226562,14.8417969 L423.226562,21.3969727 L413.753906,9.67822266 L407.235352,9.67822266 L407.235352,10.6547852 C407.707357,10.7443034 408.128499,10.8684082 408.498779,11.0270996 C408.869059,11.185791 409.196615,11.4034831 409.481445,11.6801758 C409.75,11.9405924 409.947347,12.2518717 410.073486,12.6140137 C410.199626,12.9761556 410.262695,13.3606771 410.262695,13.7675781 L410.262695,13.7675781 L410.262695,21.9707031 C410.262695,23.09375 410.203695,23.8933105 410.085693,24.3693848 C409.967692,24.845459 409.75,25.2014974 409.432617,25.4375 C409.155924,25.6328125 408.812093,25.7772624 408.401123,25.8708496 C407.990153,25.9644368 407.625977,26.0234375 407.308594,26.0478516 L407.308594,26.0478516 L407.308594,27 L414.754883,27 L414.754883,26.0478516 C414.470052,25.9990234 414.087565,25.9054362 413.607422,25.7670898 C413.127279,25.6287435 412.777344,25.4700521 412.557617,25.2910156 C412.25651,25.046875 412.038818,24.6623535 411.904541,24.1374512 C411.770264,23.6125488 411.703125,22.8455404 411.703125,21.8364258 L411.703125,21.8364258 L411.703125,13.706543 L422.494141,27.0976562 L424.666992,27.0976562 Z M435.970703,27.4638672 C437.110026,27.4638672 438.106934,27.3255208 438.961426,27.0488281 C439.815918,26.7721354 440.568685,26.3774414 441.219727,25.8647461 C441.813802,25.4008789 442.285807,24.8190104 442.635742,24.1191406 C442.985677,23.4192708 443.160645,22.694987 443.160645,21.9462891 C443.160645,20.758138 442.853434,19.763265 442.239014,18.9616699 C441.624593,18.1600749 440.727376,17.5314128 439.547363,17.0756836 C439.059082,16.8885091 438.501628,16.6931966 437.875,16.4897461 C437.248372,16.2862956 436.633952,16.0828451 436.031738,15.8793945 C435.006348,15.5457357 434.251546,15.1591797 433.767334,14.7197266 C433.283122,14.2802734 433.041016,13.714681 433.041016,13.0229492 C433.041016,12.2905273 433.319743,11.6761068 433.877197,11.1796875 C434.434652,10.6832682 435.152832,10.4350586 436.031738,10.4350586 C436.731608,10.4350586 437.34196,10.5754395 437.862793,10.8562012 C438.383626,11.1369629 438.843424,11.5133464 439.242188,11.9853516 C439.608398,12.4248047 439.956299,12.9761556 440.285889,13.6394043 C440.615479,14.302653 440.902344,14.9516602 441.146484,15.5864258 L441.146484,15.5864258 L442.196289,15.5864258 L442.098633,9.67822266 L441.036621,9.67822266 L440.291992,10.4106445 C439.811849,10.1420898 439.152669,9.87556966 438.314453,9.61108398 C437.476237,9.34659831 436.576986,9.21435547 435.616699,9.21435547 C434.631999,9.21435547 433.72054,9.36083984 432.882324,9.65380859 C432.044108,9.94677734 431.356445,10.3251953 430.819336,10.7890625 C430.257812,11.2854818 429.830566,11.8449707 429.537598,12.4675293 C429.244629,13.0900879 429.098145,13.7390951 429.098145,14.4145508 C429.098145,15.4806315 429.380941,16.444987 429.946533,17.3076172 C430.512126,18.1702474 431.37679,18.8334961 432.540527,19.2973633 C433.045085,19.4926758 433.584229,19.6839193 434.157959,19.8710938 C434.731689,20.0582682 435.360352,20.2617188 436.043945,20.4814453 C437.09375,20.8151042 437.868896,21.2118327 438.369385,21.6716309 C438.869873,22.131429 439.120117,22.699056 439.120117,23.3745117 C439.120117,24.1964518 438.825114,24.8780111 438.235107,25.4191895 C437.645101,25.9603678 436.796712,26.230957 435.689941,26.230957 C434.868001,26.230957 434.149821,26.0600586 433.5354,25.7182617 C432.92098,25.3764648 432.36556,24.9329427 431.869141,24.3876953 C431.388997,23.866862 430.96582,23.2768555 430.599609,22.6176758 C430.233398,21.9584961 429.932292,21.3318685 429.696289,20.737793 L429.696289,20.737793 L428.646484,20.737793 L428.805176,27 L429.842773,27 L430.685059,26.1455078 C431.319824,26.5035807 432.094971,26.8128255 433.010498,27.0732422 C433.926025,27.3336589 434.91276,27.4638672 435.970703,27.4638672 Z M450.509277,27 L450.509277,26.0478516 C449.589681,25.9664714 448.932536,25.8342285 448.537842,25.651123 C448.143148,25.4680176 447.945801,25.2462565 447.945801,24.9858398 C447.945801,24.9044596 447.960042,24.7620443 447.988525,24.5585938 C448.017008,24.3551432 448.108561,24.0255534 448.263184,23.5698242 C448.385254,23.2198893 448.529704,22.8211263 448.696533,22.3735352 C448.863363,21.925944 449.015951,21.535319 449.154297,21.2016602 L449.154297,21.2016602 L455.135742,21.2016602 L456.612793,24.7905273 C456.669759,24.9288737 456.704346,25.038737 456.716553,25.1201172 C456.72876,25.2014974 456.734863,25.2747396 456.734863,25.3398438 C456.734863,25.5270182 456.437826,25.6836751 455.84375,25.8098145 C455.249674,25.9359538 454.73291,26.0152995 454.293457,26.0478516 L454.293457,26.0478516 L454.293457,27 L463.729492,27 L463.729492,26.0478516 C463.485352,26.0315755 463.212728,25.9908854 462.911621,25.9257812 C462.610514,25.8606771 462.346029,25.7630208 462.118164,25.6328125 C461.817057,25.453776 461.585124,25.2645671 461.422363,25.0651855 C461.259603,24.865804 461.125326,24.644043 461.019531,24.3999023 C460.384766,22.9025065 459.615723,21.0144857 458.712402,18.7358398 C457.809082,16.457194 456.559896,13.3566081 454.964844,9.43408203 L454.964844,9.43408203 L452.523438,9.43408203 C451.375977,12.2010091 450.328206,14.7319336 449.380127,17.0268555 C448.432048,19.3217773 447.486003,21.6126302 446.541992,23.8994141 C446.38737,24.2900391 446.194092,24.6277669 445.962158,24.9125977 C445.730225,25.1974284 445.447428,25.4375 445.11377,25.6328125 C444.918457,25.7548828 444.651937,25.8505046 444.314209,25.9196777 C443.976481,25.9888509 443.67334,26.0315755 443.404785,26.0478516 L443.404785,26.0478516 L443.404785,27 L450.509277,27 Z M454.635254,19.9931641 L449.642578,19.9931641 L452.120605,13.71875 L454.635254,19.9931641 Z M480.831543,27.0976562 L480.831543,14.7197266 C480.831543,13.6861979 480.894613,12.9029134 481.020752,12.369873 C481.146891,11.8368327 481.360514,11.4604492 481.661621,11.2407227 C482.003418,10.988444 482.385905,10.8297526 482.809082,10.7646484 C483.232259,10.6995443 483.55778,10.6547852 483.785645,10.6303711 L483.785645,10.6303711 L483.785645,9.67822266 L476.351562,9.67822266 L476.351562,10.6303711 C476.636393,10.6791992 477.010742,10.770752 477.474609,10.9050293 C477.938477,11.0393066 478.288411,11.2000326 478.524414,11.387207 C478.825521,11.6313477 479.045247,12.0077311 479.183594,12.5163574 C479.32194,13.0249837 479.391113,13.8001302 479.391113,14.8417969 L479.391113,14.8417969 L479.391113,21.3969727 L469.918457,9.67822266 L463.399902,9.67822266 L463.399902,10.6547852 C463.871908,10.7443034 464.29305,10.8684082 464.66333,11.0270996 C465.03361,11.185791 465.361165,11.4034831 465.645996,11.6801758 C465.914551,11.9405924 466.111898,12.2518717 466.238037,12.6140137 C466.364176,12.9761556 466.427246,13.3606771 466.427246,13.7675781 L466.427246,13.7675781 L466.427246,21.9707031 C466.427246,23.09375 466.368245,23.8933105 466.250244,24.3693848 C466.132243,24.845459 465.914551,25.2014974 465.597168,25.4375 C465.320475,25.6328125 464.976644,25.7772624 464.565674,25.8708496 C464.154704,25.9644368 463.790527,26.0234375 463.473145,26.0478516 L463.473145,26.0478516 L463.473145,27 L470.919434,27 L470.919434,26.0478516 C470.634603,25.9990234 470.252116,25.9054362 469.771973,25.7670898 C469.291829,25.6287435 468.941895,25.4700521 468.722168,25.2910156 C468.421061,25.046875 468.203369,24.6623535 468.069092,24.1374512 C467.934814,23.6125488 467.867676,22.8455404 467.867676,21.8364258 L467.867676,21.8364258 L467.867676,13.706543 L478.658691,27.0976562 L480.831543,27.0976562 Z M501.119629,27 L501.449219,21.6044922 L500.558105,21.6044922 C500.403483,22.0113932 500.082031,22.6237793 499.59375,23.4416504 C499.105469,24.2595215 498.666016,24.8678385 498.275391,25.2666016 C498.128906,25.421224 497.907145,25.5392253 497.610107,25.6206055 C497.31307,25.7019857 496.993652,25.7630208 496.651855,25.8037109 C496.350749,25.844401 496.000814,25.8688151 495.602051,25.8769531 C495.203288,25.8850911 494.861491,25.8891602 494.57666,25.8891602 C493.966309,25.8891602 493.484131,25.8647461 493.130127,25.815918 C492.776123,25.7670898 492.497396,25.6653646 492.293945,25.5107422 C492.082357,25.3479818 491.937907,25.1140137 491.860596,24.8088379 C491.783285,24.5036621 491.744629,24.0906576 491.744629,23.5698242 L491.744629,23.5698242 L491.744629,18.5771484 L493.526855,18.5771484 C494.006999,18.5771484 494.430176,18.6320801 494.796387,18.7419434 C495.162598,18.8518066 495.47998,19.0532227 495.748535,19.3461914 C495.927572,19.5415039 496.116781,19.8975423 496.316162,20.4143066 C496.515544,20.931071 496.639648,21.3603516 496.688477,21.7021484 L496.688477,21.7021484 L497.616211,21.7021484 L497.616211,14.4755859 L496.688477,14.4755859 C496.63151,14.8255208 496.507406,15.2364909 496.316162,15.7084961 C496.124919,16.1805013 495.93571,16.5100911 495.748535,16.6972656 C495.447428,16.9983724 495.11377,17.2018229 494.747559,17.3076172 C494.381348,17.4134115 493.974447,17.4663086 493.526855,17.4663086 L493.526855,17.4663086 L491.744629,17.4663086 L491.744629,10.7768555 L494.259277,10.7768555 C494.544108,10.7768555 494.904215,10.782959 495.3396,10.795166 C495.774984,10.807373 496.114746,10.8419596 496.358887,10.8989258 C496.928548,11.0209961 497.502279,11.4197591 498.080078,12.0952148 C498.657878,12.7706706 499.064779,13.4379883 499.300781,14.097168 L499.300781,14.097168 L500.228516,14.097168 L500.228516,9.67822266 L484.87207,9.67822266 L484.87207,10.6303711 C485.067383,10.6547852 485.356283,10.7076823 485.73877,10.7890625 C486.121257,10.8704427 486.418294,10.9599609 486.629883,11.0576172 C486.97168,11.2122396 487.187337,11.3851725 487.276855,11.576416 C487.366374,11.7676595 487.411133,12.0097656 487.411133,12.3027344 L487.411133,12.3027344 L487.411133,24.5219727 C487.411133,24.8312174 487.358236,25.0855306 487.252441,25.2849121 C487.146647,25.4842936 486.939128,25.6490885 486.629883,25.7792969 C486.467122,25.844401 486.19043,25.9013672 485.799805,25.9501953 C485.40918,25.9990234 485.099935,26.0315755 484.87207,26.0478516 L484.87207,26.0478516 L484.87207,27 L501.119629,27 Z M350.960938,55.4760742 C352.295573,55.4760742 353.758382,55.2604167 355.349365,54.8291016 C356.940348,54.3977865 358.142741,53.9379883 358.956543,53.449707 C358.940267,53.0834961 358.92806,52.7762858 358.919922,52.5280762 C358.911784,52.2798665 358.907715,51.9523112 358.907715,51.5454102 L358.907715,51.5454102 L358.907715,49.53125 C358.907715,49.2626953 358.960612,49.0063477 359.066406,48.762207 C359.172201,48.5180664 359.391927,48.343099 359.725586,48.2373047 C360.018555,48.1396484 360.262695,48.0745443 360.458008,48.0419922 C360.65332,48.0094401 360.877116,47.980957 361.129395,47.956543 L361.129395,47.956543 L361.129395,47.0043945 L352.132812,47.0043945 L352.132812,47.956543 C352.376953,47.9890951 352.682129,48.0419922 353.04834,48.1152344 C353.414551,48.1884766 353.719727,48.2820638 353.963867,48.3959961 C354.28125,48.5424805 354.492839,48.7154134 354.598633,48.9147949 C354.704427,49.1141764 354.757324,49.3603516 354.757324,49.6533203 L354.757324,49.6533203 L354.757324,53.1689453 C354.448079,53.453776 354.01473,53.7040202 353.457275,53.9196777 C352.899821,54.1353353 352.263021,54.2431641 351.546875,54.2431641 C350.016927,54.2431641 348.83488,53.5229492 348.000732,52.0825195 C347.166585,50.6420898 346.749512,48.6482747 346.749512,46.1010742 C346.749512,43.7003581 347.174723,41.8164062 348.025146,40.4492188 C348.87557,39.0820312 350.082031,38.3984375 351.644531,38.3984375 C352.962891,38.3984375 354.053385,38.8582357 354.916016,39.777832 C355.778646,40.6974284 356.519206,42.105306 357.137695,44.0014648 L357.137695,44.0014648 L358.211914,44.0014648 L358.102051,37.6782227 L357.040039,37.6782227 L356.283203,38.3496094 C355.737956,38.0729167 355.046224,37.8145345 354.208008,37.5744629 C353.369792,37.3343913 352.458333,37.2143555 351.473633,37.2143555 C350.025065,37.2143555 348.704671,37.438151 347.512451,37.8857422 C346.320231,38.3333333 345.309082,38.968099 344.479004,39.7900391 C343.63265,40.6201172 342.985677,41.6088867 342.538086,42.7563477 C342.090495,43.9038086 341.866699,45.1529948 341.866699,46.5039062 C341.866699,47.952474 342.104736,49.2382812 342.580811,50.3613281 C343.056885,51.484375 343.709961,52.4243164 344.540039,53.1811523 C345.370117,53.9461263 346.334473,54.5198568 347.433105,54.9023438 C348.531738,55.2848307 349.707682,55.4760742 350.960938,55.4760742 Z M367.184082,55.3662109 C367.89209,55.3662109 368.431234,55.3133138 368.801514,55.2075195 C369.171794,55.1017253 369.564453,54.9389648 369.979492,54.7192383 C370.345703,54.5239258 370.661051,54.3062337 370.925537,54.0661621 C371.190023,53.8260905 371.460612,53.5799154 371.737305,53.3276367 L371.737305,53.3276367 L371.810547,53.3276367 L371.810547,54.9267578 L371.993652,55.0976562 L377.816406,54.7436523 L377.816406,53.8525391 C377.572266,53.844401 377.32609,53.8220215 377.077881,53.7854004 C376.829671,53.7487793 376.628255,53.6816406 376.473633,53.5839844 C376.253906,53.445638 376.087077,53.2767741 375.973145,53.0773926 C375.859212,52.8780111 375.802246,52.6359049 375.802246,52.3510742 L375.802246,52.3510742 L375.802246,42.9272461 L375.619141,42.7441406 L369.69873,43.0615234 L369.69873,43.9526367 C369.983561,43.9689128 370.262288,43.9933268 370.534912,44.0258789 C370.807536,44.058431 371.01709,44.1235352 371.163574,44.2211914 C371.367025,44.3595378 371.521647,44.5385742 371.627441,44.7583008 C371.733236,44.9780273 371.786133,45.226237 371.786133,45.5029297 L371.786133,45.5029297 L371.786133,52.0825195 C371.574544,52.4243164 371.238851,52.7457682 370.779053,53.046875 C370.319255,53.3479818 369.800456,53.4985352 369.222656,53.4985352 C368.661133,53.4985352 368.219645,53.2991536 367.898193,52.9003906 C367.576742,52.5016276 367.416016,51.883138 367.416016,51.0449219 L367.416016,51.0449219 L367.416016,42.9272461 L367.281738,42.7441406 L361.361328,43.0615234 L361.361328,43.9526367 C361.572917,43.9689128 361.808919,44.0034993 362.069336,44.0563965 C362.329753,44.1092936 362.541341,44.1967773 362.704102,44.3188477 C362.907552,44.4734701 363.070312,44.650472 363.192383,44.8498535 C363.314453,45.049235 363.375488,45.3076172 363.375488,45.625 L363.375488,45.625 L363.375488,51.1181641 C363.375488,52.4690755 363.703044,53.5148112 364.358154,54.2553711 C365.013265,54.995931 365.955241,55.3662109 367.184082,55.3662109 Z M385.946289,55.390625 C386.670573,55.390625 387.311442,55.3112793 387.868896,55.1525879 C388.426351,54.9938965 388.977702,54.7599284 389.522949,54.4506836 C390.035645,54.1577148 390.493408,53.8057454 390.89624,53.3947754 C391.299072,52.9838053 391.642904,52.5463867 391.927734,52.0825195 L391.927734,52.0825195 L391,51.4111328 C390.568685,52.0540365 390.047852,52.5850423 389.4375,53.0041504 C388.827148,53.4232585 388.139486,53.6328125 387.374512,53.6328125 C385.974772,53.6328125 384.953451,53.1974284 384.310547,52.3266602 C383.667643,51.4558919 383.346191,50.1863607 383.346191,48.5180664 L383.346191,48.5180664 L391.598145,48.5180664 L391.598145,47.7246094 C391.598145,47.0328776 391.49235,46.3716634 391.280762,45.7409668 C391.069173,45.1102702 390.731445,44.5629883 390.267578,44.0991211 C389.787435,43.6108398 389.181152,43.2283529 388.44873,42.9516602 C387.716309,42.6749674 386.780436,42.5366211 385.641113,42.5366211 C384.599447,42.5366211 383.657471,42.7156576 382.815186,43.0737305 C381.9729,43.4318034 381.275065,43.8997396 380.72168,44.4775391 C380.160156,45.0716146 379.726807,45.7491048 379.421631,46.5100098 C379.116455,47.2709147 378.963867,48.0664062 378.963867,48.8964844 C378.963867,49.8160807 379.104248,50.6685384 379.38501,51.4538574 C379.665771,52.2391764 380.090983,52.9207357 380.660645,53.4985352 C381.230306,54.0763346 381.952555,54.5361328 382.827393,54.8779297 C383.70223,55.2197266 384.741862,55.390625 385.946289,55.390625 Z M383.346191,47.4926758 C383.378743,46.1173503 383.582194,45.1123047 383.956543,44.4775391 C384.330892,43.8427734 384.83138,43.5253906 385.458008,43.5253906 C385.824219,43.5253906 386.12736,43.6230469 386.367432,43.8183594 C386.607503,44.0136719 386.796712,44.3025716 386.935059,44.6850586 C387.057129,45.0105794 387.142578,45.4296875 387.191406,45.9423828 C387.240234,46.4550781 387.264648,46.9555664 387.264648,47.4438477 L387.264648,47.4438477 L383.346191,47.4926758 Z M398.751465,55.4150391 C400.436035,55.4150391 401.801188,55.0488281 402.846924,54.3164062 C403.89266,53.5839844 404.415527,52.5504557 404.415527,51.2158203 C404.415527,50.2148438 404.077799,49.3908691 403.402344,48.7438965 C402.726888,48.0969238 401.660807,47.586263 400.204102,47.2119141 C399.260091,46.9677734 398.525635,46.7073568 398.000732,46.4306641 C397.47583,46.1539714 397.213379,45.7063802 397.213379,45.0878906 C397.213379,44.6240234 397.392415,44.2618815 397.750488,44.0014648 C398.108561,43.7410482 398.600911,43.6108398 399.227539,43.6108398 C400.025065,43.6108398 400.769694,43.9180501 401.461426,44.5324707 C402.153158,45.1468913 402.641439,45.8772786 402.92627,46.7236328 L402.92627,46.7236328 L403.792969,46.7236328 L403.597656,42.5610352 L402.669922,42.5610352 L402.413574,43.28125 C401.990397,43.1022135 401.467529,42.9374186 400.844971,42.7868652 C400.222412,42.6363118 399.540853,42.5610352 398.800293,42.5610352 C397.237793,42.5610352 395.974365,42.9150391 395.01001,43.6230469 C394.045654,44.3310547 393.563477,45.2587891 393.563477,46.40625 C393.563477,47.0247396 393.67334,47.5577799 393.893066,48.0053711 C394.112793,48.4529622 394.405762,48.8354492 394.771973,49.152832 C395.19515,49.5109049 395.604085,49.7733561 395.998779,49.9401855 C396.393473,50.107015 396.867513,50.2718099 397.420898,50.4345703 C397.974284,50.5973307 398.440186,50.7356771 398.818604,50.8496094 C399.197021,50.9635417 399.544922,51.101888 399.862305,51.2646484 C400.147135,51.4192708 400.370931,51.6023763 400.533691,51.8139648 C400.696452,52.0255534 400.777832,52.2941081 400.777832,52.6196289 C400.777832,53.2218424 400.596761,53.6673991 400.234619,53.9562988 C399.872477,54.2451986 399.321126,54.3896484 398.580566,54.3896484 C398.019043,54.3896484 397.492106,54.2635091 396.999756,54.0112305 C396.507406,53.7589518 396.069987,53.449707 395.6875,53.0834961 C395.321289,52.7172852 394.995768,52.3042806 394.710938,51.8444824 C394.426107,51.3846842 394.222656,50.9716797 394.100586,50.6054688 L394.100586,50.6054688 L393.209473,50.6054688 L393.368164,55.1586914 L394.320312,55.1586914 L394.686523,54.3286133 C395.101562,54.5890299 395.685465,54.8352051 396.438232,55.0671387 C397.190999,55.2990723 397.962077,55.4150391 398.751465,55.4150391 Z M411.568848,55.4150391 C413.253418,55.4150391 414.618571,55.0488281 415.664307,54.3164062 C416.710042,53.5839844 417.23291,52.5504557 417.23291,51.2158203 C417.23291,50.2148438 416.895182,49.3908691 416.219727,48.7438965 C415.544271,48.0969238 414.47819,47.586263 413.021484,47.2119141 C412.077474,46.9677734 411.343018,46.7073568 410.818115,46.4306641 C410.293213,46.1539714 410.030762,45.7063802 410.030762,45.0878906 C410.030762,44.6240234 410.209798,44.2618815 410.567871,44.0014648 C410.925944,43.7410482 411.418294,43.6108398 412.044922,43.6108398 C412.842448,43.6108398 413.587077,43.9180501 414.278809,44.5324707 C414.97054,45.1468913 415.458822,45.8772786 415.743652,46.7236328 L415.743652,46.7236328 L416.610352,46.7236328 L416.415039,42.5610352 L415.487305,42.5610352 L415.230957,43.28125 C414.80778,43.1022135 414.284912,42.9374186 413.662354,42.7868652 C413.039795,42.6363118 412.358236,42.5610352 411.617676,42.5610352 C410.055176,42.5610352 408.791748,42.9150391 407.827393,43.6230469 C406.863037,44.3310547 406.380859,45.2587891 406.380859,46.40625 C406.380859,47.0247396 406.490723,47.5577799 406.710449,48.0053711 C406.930176,48.4529622 407.223145,48.8354492 407.589355,49.152832 C408.012533,49.5109049 408.421468,49.7733561 408.816162,49.9401855 C409.210856,50.107015 409.684896,50.2718099 410.238281,50.4345703 C410.791667,50.5973307 411.257568,50.7356771 411.635986,50.8496094 C412.014404,50.9635417 412.362305,51.101888 412.679688,51.2646484 C412.964518,51.4192708 413.188314,51.6023763 413.351074,51.8139648 C413.513835,52.0255534 413.595215,52.2941081 413.595215,52.6196289 C413.595215,53.2218424 413.414144,53.6673991 413.052002,53.9562988 C412.68986,54.2451986 412.138509,54.3896484 411.397949,54.3896484 C410.836426,54.3896484 410.309489,54.2635091 409.817139,54.0112305 C409.324788,53.7589518 408.88737,53.449707 408.504883,53.0834961 C408.138672,52.7172852 407.813151,52.3042806 407.52832,51.8444824 C407.24349,51.3846842 407.040039,50.9716797 406.917969,50.6054688 L406.917969,50.6054688 L406.026855,50.6054688 L406.185547,55.1586914 L407.137695,55.1586914 L407.503906,54.3286133 C407.918945,54.5890299 408.502848,54.8352051 409.255615,55.0671387 C410.008382,55.2990723 410.77946,55.4150391 411.568848,55.4150391 Z M422.262207,40.5834961 C422.913249,40.5834961 423.476807,40.365804 423.952881,39.9304199 C424.428955,39.4950358 424.666992,38.968099 424.666992,38.3496094 C424.666992,37.7311198 424.43099,37.2021484 423.958984,36.7626953 C423.486979,36.3232422 422.921387,36.1035156 422.262207,36.1035156 C421.603027,36.1035156 421.0354,36.3232422 420.559326,36.7626953 C420.083252,37.2021484 419.845215,37.7311198 419.845215,38.3496094 C419.845215,38.968099 420.083252,39.4950358 420.559326,39.9304199 C421.0354,40.365804 421.603027,40.5834961 422.262207,40.5834961 Z M426.449219,55 L426.449219,54.1088867 C426.23763,54.0844727 426.03418,54.0437826 425.838867,53.9868164 C425.643555,53.9298503 425.464518,53.8647461 425.301758,53.7915039 C425.073893,53.6938477 424.898926,53.5453288 424.776855,53.3459473 C424.654785,53.1465658 424.59375,52.9044596 424.59375,52.6196289 L424.59375,52.6196289 L424.59375,42.9272461 L424.410645,42.7441406 L418.429199,43.0615234 L418.429199,43.9526367 C418.67334,43.9770508 418.943929,44.0340169 419.240967,44.1235352 C419.538005,44.2130534 419.759766,44.3066406 419.90625,44.4042969 C420.101562,44.5345052 420.264323,44.7074382 420.394531,44.9230957 C420.52474,45.1387533 420.589844,45.3889974 420.589844,45.6738281 L420.589844,45.6738281 L420.589844,52.7783203 C420.589844,53.0794271 420.536947,53.3215332 420.431152,53.5046387 C420.325358,53.6877441 420.142253,53.828125 419.881836,53.9257812 C419.735352,53.9827474 419.560384,54.0234375 419.356934,54.0478516 C419.153483,54.0722656 418.945964,54.0926107 418.734375,54.1088867 L418.734375,54.1088867 L418.734375,55 L426.449219,55 Z M434.994141,55 L434.994141,54.1088867 C434.806966,54.0844727 434.615723,54.0437826 434.42041,53.9868164 C434.225098,53.9298503 434.062337,53.8647461 433.932129,53.7915039 C433.744954,53.6938477 433.610677,53.5493978 433.529297,53.3581543 C433.447917,53.1669108 433.407227,52.9288737 433.407227,52.644043 L433.407227,52.644043 L433.407227,46.0888672 C433.504883,45.9586589 433.624919,45.8081055 433.767334,45.637207 C433.909749,45.4663086 434.098958,45.2994792 434.334961,45.1367188 C434.603516,44.9495443 434.878174,44.8071289 435.158936,44.7094727 C435.439697,44.6118164 435.742839,44.5629883 436.068359,44.5629883 C436.662435,44.5629883 437.112061,44.7725423 437.417236,45.1916504 C437.722412,45.6107585 437.875,46.2353516 437.875,47.0654297 L437.875,47.0654297 L437.875,52.7783203 C437.875,53.1119792 437.838379,53.3642578 437.765137,53.5351562 C437.691895,53.7060547 437.569824,53.836263 437.398926,53.9257812 C437.284993,53.9827474 437.118164,54.0234375 436.898438,54.0478516 C436.678711,54.0722656 436.491536,54.0926107 436.336914,54.1088867 L436.336914,54.1088867 L436.336914,55 L443.685547,55 L443.685547,54.1088867 C443.441406,54.0844727 443.223714,54.0437826 443.032471,53.9868164 C442.841227,53.9298503 442.680501,53.8728841 442.550293,53.815918 C442.306152,53.7101237 442.139323,53.5677083 442.049805,53.3886719 C441.960286,53.2096354 441.915527,52.9695638 441.915527,52.668457 L441.915527,52.668457 L441.915527,46.6870117 C441.915527,45.4418945 441.583903,44.4429525 440.920654,43.6901855 C440.257406,42.9374186 439.262533,42.5610352 437.936035,42.5610352 C437.38265,42.5610352 436.861816,42.6302083 436.373535,42.7685547 C435.885254,42.906901 435.49056,43.0737305 435.189453,43.269043 C434.91276,43.4480794 434.611654,43.680013 434.286133,43.9648438 C433.960612,44.2496745 433.683919,44.4938151 433.456055,44.6972656 L433.456055,44.6972656 L433.407227,44.6972656 L433.407227,42.9272461 L433.224121,42.7441406 L427.401367,43.0615234 L427.401367,43.9526367 C427.669922,43.9770508 427.916097,44.0218099 428.139893,44.0869141 C428.363688,44.1520182 428.548828,44.2333984 428.695312,44.3310547 C428.906901,44.4856771 429.077799,44.6850586 429.208008,44.9291992 C429.338216,45.1733398 429.40332,45.4215495 429.40332,45.6738281 L429.40332,45.6738281 L429.40332,52.7783203 C429.40332,53.0794271 429.354492,53.3235677 429.256836,53.5107422 C429.15918,53.6979167 428.980143,53.836263 428.719727,53.9257812 C428.573242,53.9746094 428.39624,54.013265 428.188721,54.041748 C427.981201,54.0702311 427.775716,54.0926107 427.572266,54.1088867 L427.572266,54.1088867 L427.572266,55 L434.994141,55 Z M451.009766,60.4199219 C452.336263,60.4199219 453.449137,60.3059896 454.348389,60.078125 C455.24764,59.8502604 456.018717,59.5288086 456.661621,59.1137695 C457.271973,58.7150065 457.725667,58.2430013 458.022705,57.6977539 C458.319743,57.1525065 458.468262,56.570638 458.468262,55.9521484 C458.468262,55.374349 458.346191,54.8636882 458.102051,54.420166 C457.85791,53.9766439 457.548665,53.6124674 457.174316,53.3276367 C456.83252,53.059082 456.429688,52.84139 455.96582,52.6745605 C455.501953,52.5077311 455.034017,52.4121094 454.562012,52.3876953 C454.236491,52.3795573 453.695312,52.3531087 452.938477,52.3083496 C452.181641,52.2635905 451.432943,52.2330729 450.692383,52.2167969 C449.943685,52.2005208 449.426921,52.1232096 449.14209,51.9848633 C448.857259,51.8465169 448.714844,51.5983073 448.714844,51.2402344 C448.714844,51.09375 448.773844,50.9411621 448.891846,50.7824707 C449.009847,50.6237793 449.117676,50.5078125 449.215332,50.4345703 L449.215332,50.4345703 L451.205078,50.4345703 C451.986328,50.4345703 452.710612,50.3450521 453.37793,50.1660156 C454.045247,49.9869792 454.627116,49.7387695 455.123535,49.4213867 C455.611816,49.1121419 456.00651,48.7113444 456.307617,48.2189941 C456.608724,47.7266439 456.759277,47.199707 456.759277,46.6381836 C456.759277,46.2068685 456.679932,45.7918294 456.52124,45.3930664 C456.362549,44.9943034 456.124512,44.6158854 455.807129,44.2578125 L455.807129,44.2578125 L458.492676,44.2578125 L458.492676,42.9394531 L453.756348,42.9394531 C453.487793,42.8662109 453.095133,42.7827962 452.578369,42.689209 C452.061605,42.5956217 451.52653,42.5488281 450.973145,42.5488281 C449.280436,42.5488281 447.882731,42.906901 446.780029,43.6230469 C445.677327,44.3391927 445.125977,45.2954102 445.125977,46.4916992 C445.125977,47.3380534 445.384359,48.0541992 445.901123,48.6401367 C446.417887,49.2260742 447.225586,49.7224935 448.324219,50.1293945 L448.324219,50.1293945 L448.324219,50.2636719 C448.104492,50.328776 447.831868,50.4162598 447.506348,50.526123 C447.180827,50.6359863 446.904134,50.7682292 446.67627,50.9228516 C446.415853,51.101888 446.20223,51.3094076 446.0354,51.5454102 C445.868571,51.7814128 445.785156,52.0703125 445.785156,52.4121094 C445.785156,52.9654948 445.99471,53.4517415 446.413818,53.8708496 C446.832926,54.2899577 447.416829,54.625651 448.165527,54.8779297 L448.165527,54.8779297 L448.165527,55.0244141 C446.895996,55.0651042 445.960124,55.2929688 445.35791,55.7080078 C444.755697,56.1230469 444.45459,56.6520182 444.45459,57.2949219 C444.45459,58.3365885 445.012044,59.1178385 446.126953,59.6386719 C447.241862,60.1595052 448.869466,60.4199219 451.009766,60.4199219 Z M450.94873,49.53125 C450.379069,49.53125 449.939616,49.2464193 449.630371,48.6767578 C449.321126,48.1070964 449.166504,47.3787435 449.166504,46.4916992 C449.166504,46.1010742 449.190918,45.7206217 449.239746,45.3503418 C449.288574,44.9800618 449.382161,44.6565755 449.520508,44.3798828 C449.666992,44.0950521 449.858236,43.87736 450.094238,43.7268066 C450.330241,43.5762533 450.606934,43.5009766 450.924316,43.5009766 C451.550944,43.5009766 452.014811,43.7776693 452.315918,44.3310547 C452.617025,44.8844401 452.767578,45.637207 452.767578,46.5893555 C452.767578,47.5252279 452.610921,48.2495117 452.297607,48.762207 C451.984294,49.2749023 451.534668,49.53125 450.94873,49.53125 Z M451.583496,59.4189453 C450.875488,59.4189453 450.346517,59.3518066 449.996582,59.2175293 C449.646647,59.083252 449.329264,58.898112 449.044434,58.6621094 C448.800293,58.4505208 448.621257,58.2226562 448.507324,57.9785156 C448.393392,57.734375 448.336426,57.5105794 448.336426,57.3071289 C448.336426,56.8351237 448.432048,56.4322917 448.623291,56.0986328 C448.814535,55.764974 449.052572,55.4760742 449.337402,55.2319336 C450.509277,55.2319336 451.430908,55.2400716 452.102295,55.2563477 C452.773682,55.2726237 453.255859,55.3051758 453.548828,55.3540039 C454.085938,55.5249023 454.431803,55.7466634 454.586426,56.0192871 C454.741048,56.2919108 454.818359,56.566569 454.818359,56.8432617 C454.818359,57.746582 454.541667,58.4016927 453.988281,58.8085938 C453.434896,59.2154948 452.633301,59.4189453 451.583496,59.4189453 Z M474.837891,55.4760742 C476.172526,55.4760742 477.635335,55.2604167 479.226318,54.8291016 C480.817301,54.3977865 482.019694,53.9379883 482.833496,53.449707 C482.81722,53.0834961 482.805013,52.7762858 482.796875,52.5280762 C482.788737,52.2798665 482.784668,51.9523112 482.784668,51.5454102 L482.784668,51.5454102 L482.784668,49.53125 C482.784668,49.2626953 482.837565,49.0063477 482.943359,48.762207 C483.049154,48.5180664 483.26888,48.343099 483.602539,48.2373047 C483.895508,48.1396484 484.139648,48.0745443 484.334961,48.0419922 C484.530273,48.0094401 484.754069,47.980957 485.006348,47.956543 L485.006348,47.956543 L485.006348,47.0043945 L476.009766,47.0043945 L476.009766,47.956543 C476.253906,47.9890951 476.559082,48.0419922 476.925293,48.1152344 C477.291504,48.1884766 477.59668,48.2820638 477.84082,48.3959961 C478.158203,48.5424805 478.369792,48.7154134 478.475586,48.9147949 C478.58138,49.1141764 478.634277,49.3603516 478.634277,49.6533203 L478.634277,49.6533203 L478.634277,53.1689453 C478.325033,53.453776 477.891683,53.7040202 477.334229,53.9196777 C476.776774,54.1353353 476.139974,54.2431641 475.423828,54.2431641 C473.89388,54.2431641 472.711833,53.5229492 471.877686,52.0825195 C471.043538,50.6420898 470.626465,48.6482747 470.626465,46.1010742 C470.626465,43.7003581 471.051676,41.8164062 471.9021,40.4492188 C472.752523,39.0820312 473.958984,38.3984375 475.521484,38.3984375 C476.839844,38.3984375 477.930339,38.8582357 478.792969,39.777832 C479.655599,40.6974284 480.396159,42.105306 481.014648,44.0014648 L481.014648,44.0014648 L482.088867,44.0014648 L481.979004,37.6782227 L480.916992,37.6782227 L480.160156,38.3496094 C479.614909,38.0729167 478.923177,37.8145345 478.084961,37.5744629 C477.246745,37.3343913 476.335286,37.2143555 475.350586,37.2143555 C473.902018,37.2143555 472.581624,37.438151 471.389404,37.8857422 C470.197184,38.3333333 469.186035,38.968099 468.355957,39.7900391 C467.509603,40.6201172 466.86263,41.6088867 466.415039,42.7563477 C465.967448,43.9038086 465.743652,45.1529948 465.743652,46.5039062 C465.743652,47.952474 465.981689,49.2382812 466.457764,50.3613281 C466.933838,51.484375 467.586914,52.4243164 468.416992,53.1811523 C469.24707,53.9461263 470.211426,54.5198568 471.310059,54.9023438 C472.408691,55.2848307 473.584635,55.4760742 474.837891,55.4760742 Z M489.4375,55.378418 C490.072266,55.378418 490.56665,55.3356934 490.920654,55.2502441 C491.274658,55.1647949 491.642904,55.0325521 492.025391,54.8535156 C492.318359,54.7151693 492.593018,54.5483398 492.849365,54.3530273 C493.105713,54.1577148 493.372233,53.9217122 493.648926,53.6450195 L493.648926,53.6450195 L493.722168,53.6450195 C493.893066,54.1984049 494.214518,54.6236165 494.686523,54.9206543 C495.158529,55.2176921 495.89502,55.3662109 496.895996,55.3662109 C497.441243,55.3662109 497.958008,55.3011068 498.446289,55.1708984 C498.93457,55.0406901 499.357747,54.8982747 499.71582,54.7436523 L499.71582,54.7436523 L499.71582,53.8525391 C499.47168,53.8525391 499.20109,53.8464355 498.904053,53.8342285 C498.607015,53.8220215 498.389323,53.7833659 498.250977,53.7182617 C498.023112,53.6124674 497.854248,53.453776 497.744385,53.2421875 C497.634521,53.030599 497.57959,52.7416992 497.57959,52.3754883 C497.57959,51.9767253 497.5979,51.1466471 497.634521,49.8852539 C497.671143,48.6238607 497.689453,47.5333659 497.689453,46.6137695 C497.689453,45.7430013 497.540934,45.037028 497.243896,44.4958496 C496.946859,43.9546712 496.546061,43.5416667 496.041504,43.2568359 C495.512533,42.9638672 494.918457,42.7705892 494.259277,42.677002 C493.600098,42.5834147 492.875814,42.5366211 492.086426,42.5366211 C491.516764,42.5366211 490.898275,42.6037598 490.230957,42.7380371 C489.563639,42.8723145 488.973633,43.0615234 488.460938,43.3056641 C487.940104,43.5416667 487.498617,43.8407389 487.136475,44.2028809 C486.774333,44.5650228 486.593262,44.9739583 486.593262,45.4296875 C486.593262,45.9586589 486.768229,46.3879395 487.118164,46.7175293 C487.468099,47.0471191 487.984863,47.2119141 488.668457,47.2119141 C489.1486,47.2119141 489.504639,47.1671549 489.736572,47.0776367 C489.968506,46.9881185 490.17806,46.8619792 490.365234,46.6992188 C490.503581,46.5771484 490.609375,46.4123535 490.682617,46.204834 C490.755859,45.9973145 490.79248,45.8243815 490.79248,45.6860352 C490.79248,45.3767904 490.735514,45.0553385 490.621582,44.7216797 C490.50765,44.3880208 490.438477,44.1398112 490.414062,43.9770508 C490.560547,43.8712565 490.753825,43.7674967 490.993896,43.6657715 C491.233968,43.5640462 491.53304,43.5131836 491.891113,43.5131836 C492.289876,43.5131836 492.611328,43.6027018 492.855469,43.7817383 C493.099609,43.9607747 493.278646,44.1805013 493.392578,44.440918 C493.498372,44.6687826 493.567546,44.9495443 493.600098,45.2832031 C493.63265,45.616862 493.648926,45.8854167 493.648926,46.0888672 L493.648926,46.0888672 L493.648926,47.2607422 C493.176921,47.4886068 492.428223,47.7469889 491.402832,48.0358887 C490.377441,48.3247884 489.498535,48.6035156 488.766113,48.8720703 C488.383626,49.0185547 488.031657,49.1772461 487.710205,49.3481445 C487.388753,49.519043 487.105957,49.7347005 486.861816,49.9951172 C486.593262,50.2799479 486.385742,50.6075033 486.239258,50.9777832 C486.092773,51.3480632 486.019531,51.7976888 486.019531,52.3266602 C486.019531,53.2462565 486.35319,53.9847819 487.020508,54.5422363 C487.687826,55.0996908 488.49349,55.378418 489.4375,55.378418 Z M491.732422,53.4741211 C491.309245,53.4741211 490.953206,53.3317057 490.664307,53.046875 C490.375407,52.7620443 490.230957,52.3022461 490.230957,51.6674805 C490.230957,51.1873372 490.316406,50.7702637 490.487305,50.4162598 C490.658203,50.0622559 490.894206,49.7713216 491.195312,49.543457 C491.480143,49.3237305 491.846354,49.1141764 492.293945,48.9147949 C492.741536,48.7154134 493.193197,48.5384115 493.648926,48.3837891 L493.648926,48.3837891 L493.600098,52.5219727 C493.380371,52.7905273 493.126058,53.0163574 492.837158,53.1994629 C492.548258,53.3825684 492.180013,53.4741211 491.732422,53.4741211 Z M507.967773,55 L507.967773,54.1088867 C507.780599,54.0844727 507.603597,54.0437826 507.436768,53.9868164 C507.269938,53.9298503 507.121419,53.8647461 506.991211,53.7915039 C506.804036,53.6857096 506.673828,53.5392253 506.600586,53.3520508 C506.527344,53.1648763 506.490723,52.9288737 506.490723,52.644043 L506.490723,52.644043 L506.490723,46.0888672 C506.580241,45.9667969 506.690104,45.8203125 506.820312,45.6494141 C506.950521,45.4785156 507.133626,45.3076172 507.369629,45.1367188 C507.597493,44.9739583 507.847738,44.8376465 508.120361,44.7277832 C508.392985,44.6179199 508.704264,44.5629883 509.054199,44.5629883 C509.607585,44.5629883 510.032796,44.7725423 510.329834,45.1916504 C510.626872,45.6107585 510.775391,46.2394206 510.775391,47.0776367 L510.775391,47.0776367 L510.775391,52.7783203 C510.775391,53.1119792 510.748942,53.3642578 510.696045,53.5351562 C510.643148,53.7060547 510.53125,53.836263 510.360352,53.9257812 C510.254557,53.9827474 510.091797,54.0234375 509.87207,54.0478516 C509.652344,54.0722656 509.465169,54.0926107 509.310547,54.1088867 L509.310547,54.1088867 L509.310547,55 L516.280762,55 L516.280762,54.1088867 C516.093587,54.0844727 515.916585,54.0437826 515.749756,53.9868164 C515.582926,53.9298503 515.434408,53.8647461 515.304199,53.7915039 C515.117025,53.6857096 514.988851,53.5412598 514.919678,53.3581543 C514.850505,53.1750488 514.815918,52.9370117 514.815918,52.644043 L514.815918,52.644043 L514.815918,46.0888672 C514.905436,45.9667969 515.015299,45.8203125 515.145508,45.6494141 C515.275716,45.4785156 515.458822,45.3076172 515.694824,45.1367188 C515.922689,44.9739583 516.172933,44.8376465 516.445557,44.7277832 C516.71818,44.6179199 517.02946,44.5629883 517.379395,44.5629883 C517.93278,44.5629883 518.357992,44.7725423 518.655029,45.1916504 C518.952067,45.6107585 519.100586,46.2394206 519.100586,47.0776367 L519.100586,47.0776367 L519.100586,52.7783203 C519.100586,53.0794271 519.076172,53.3256022 519.027344,53.5168457 C518.978516,53.7080892 518.864583,53.844401 518.685547,53.9257812 C518.555339,53.9908854 518.392578,54.0315755 518.197266,54.0478516 C518.001953,54.0641276 517.814779,54.0844727 517.635742,54.1088867 L517.635742,54.1088867 L517.635742,55 L524.911133,55 L524.911133,54.1088867 C524.658854,54.0844727 524.437093,54.0437826 524.24585,53.9868164 C524.054606,53.9298503 523.89388,53.8728841 523.763672,53.815918 C523.527669,53.7182617 523.364909,53.5778809 523.275391,53.3947754 C523.185872,53.2116699 523.141113,52.9695638 523.141113,52.668457 L523.141113,52.668457 L523.141113,46.7358398 C523.141113,45.4012044 522.809489,44.3717448 522.14624,43.6474609 C521.482992,42.9231771 520.536947,42.5610352 519.308105,42.5610352 C518.746582,42.5610352 518.219645,42.6302083 517.727295,42.7685547 C517.234945,42.906901 516.830078,43.0777995 516.512695,43.28125 C516.227865,43.4602865 515.914551,43.6983236 515.572754,43.9953613 C515.230957,44.2923991 514.942057,44.5507812 514.706055,44.7705078 L514.706055,44.7705078 L514.596191,44.7705078 C514.335775,44.1031901 513.894287,43.5681152 513.271729,43.1652832 C512.64917,42.7624512 511.874023,42.5610352 510.946289,42.5610352 C510.384766,42.5610352 509.868001,42.6261393 509.395996,42.7563477 C508.923991,42.886556 508.537435,43.0493164 508.236328,43.2446289 C507.959635,43.4155273 507.664632,43.6413574 507.351318,43.9221191 C507.038005,44.2028809 506.767415,44.444987 506.539551,44.6484375 L506.539551,44.6484375 L506.490723,44.6484375 L506.490723,42.9272461 L506.307617,42.7441406 L500.484863,43.0615234 L500.484863,43.9526367 C500.753418,43.9770508 500.999593,44.0218099 501.223389,44.0869141 C501.447184,44.1520182 501.632324,44.2333984 501.778809,44.3310547 C501.974121,44.469401 502.140951,44.662679 502.279297,44.9108887 C502.417643,45.1590983 502.486816,45.4134115 502.486816,45.6738281 L502.486816,45.6738281 L502.486816,52.7783203 C502.486816,53.0794271 502.437988,53.3215332 502.340332,53.5046387 C502.242676,53.6877441 502.063639,53.828125 501.803223,53.9257812 C501.656738,53.9827474 501.481771,54.0234375 501.27832,54.0478516 C501.07487,54.0722656 500.86735,54.0926107 500.655762,54.1088867 L500.655762,54.1088867 L500.655762,55 L507.967773,55 Z M533.1875,55.390625 C533.911784,55.390625 534.552653,55.3112793 535.110107,55.1525879 C535.667562,54.9938965 536.218913,54.7599284 536.76416,54.4506836 C537.276855,54.1577148 537.734619,53.8057454 538.137451,53.3947754 C538.540283,52.9838053 538.884115,52.5463867 539.168945,52.0825195 L539.168945,52.0825195 L538.241211,51.4111328 C537.809896,52.0540365 537.289062,52.5850423 536.678711,53.0041504 C536.068359,53.4232585 535.380697,53.6328125 534.615723,53.6328125 C533.215983,53.6328125 532.194661,53.1974284 531.551758,52.3266602 C530.908854,51.4558919 530.587402,50.1863607 530.587402,48.5180664 L530.587402,48.5180664 L538.839355,48.5180664 L538.839355,47.7246094 C538.839355,47.0328776 538.733561,46.3716634 538.521973,45.7409668 C538.310384,45.1102702 537.972656,44.5629883 537.508789,44.0991211 C537.028646,43.6108398 536.422363,43.2283529 535.689941,42.9516602 C534.95752,42.6749674 534.021647,42.5366211 532.882324,42.5366211 C531.840658,42.5366211 530.898682,42.7156576 530.056396,43.0737305 C529.214111,43.4318034 528.516276,43.8997396 527.962891,44.4775391 C527.401367,45.0716146 526.968018,45.7491048 526.662842,46.5100098 C526.357666,47.2709147 526.205078,48.0664062 526.205078,48.8964844 C526.205078,49.8160807 526.345459,50.6685384 526.626221,51.4538574 C526.906982,52.2391764 527.332194,52.9207357 527.901855,53.4985352 C528.471517,54.0763346 529.193766,54.5361328 530.068604,54.8779297 C530.943441,55.2197266 531.983073,55.390625 533.1875,55.390625 Z M530.587402,47.4926758 C530.619954,46.1173503 530.823405,45.1123047 531.197754,44.4775391 C531.572103,43.8427734 532.072591,43.5253906 532.699219,43.5253906 C533.06543,43.5253906 533.368571,43.6230469 533.608643,43.8183594 C533.848714,44.0136719 534.037923,44.3025716 534.17627,44.6850586 C534.29834,45.0105794 534.383789,45.4296875 534.432617,45.9423828 C534.481445,46.4550781 534.505859,46.9555664 534.505859,47.4438477 L534.505859,47.4438477 L530.587402,47.4926758 Z" id="TheINSANEGuessingGame" fill="#1F1F1F" fill-rule="nonzero"></path>
        <g id="Group" transform="translate(449.214420, 16.255520) rotate(5.000000) translate(-449.214420, -16.255520) translate(396.714420, 8.755520)">
            <polygon id="Path" stroke="#FFFFFF" stroke-width="2" fill="#131313" points="0 1.04083409e-16 0 15 105 15 105 0.498901712"></polygon>
            <path d="M31.4404297,11 L31.4404297,8.85546875 L32.2709961,8.85546875 L33.2861328,11 L34.8857422,11 L33.6904297,8.65332031 C33.8457031,8.58886719 34.0068359,8.48339844 34.1738281,8.33691406 C34.3408203,8.19042969 34.4807129,8.00219727 34.5935059,7.7722168 C34.7062988,7.54223633 34.7626953,7.2734375 34.7626953,6.96582031 C34.7626953,6.5703125 34.6777344,6.2253418 34.5078125,5.9309082 C34.3378906,5.63647461 34.0888672,5.40795898 33.7607422,5.24536133 C33.4326172,5.08276367 33.03125,5.00146484 32.5566406,5.00146484 L30.0209961,5.00146484 L30.0209961,11 L31.4404297,11 Z M32.328125,7.83154297 L31.4404297,7.83154297 L31.4404297,6.08251953 L32.3413086,6.08251953 C32.6079102,6.08251953 32.8305664,6.15869141 33.0092773,6.31103516 C33.1879883,6.46337891 33.2773438,6.68457031 33.2773438,6.97460938 C33.2773438,7.26171875 33.1894531,7.47631836 33.0136719,7.6184082 C32.8378906,7.76049805 32.609375,7.83154297 32.328125,7.83154297 Z M40.1987305,11 L40.1987305,9.85302734 L37.6015625,9.85302734 L37.6015625,8.50830078 L40.0361328,8.50830078 L40.0361328,7.45361328 L37.6015625,7.45361328 L37.6015625,6.1484375 L40.1987305,6.1484375 L40.1987305,5.00146484 L36.1733398,5.00146484 L36.1733398,11 L40.1987305,11 Z M44.0439453,11 C44.6621094,11 45.1711426,10.878418 45.5710449,10.6352539 C45.9709473,10.3920898 46.2683105,10.043457 46.4631348,9.58935547 C46.657959,9.13525391 46.7553711,8.59765625 46.7553711,7.9765625 C46.7553711,7.35839844 46.6594238,6.82739258 46.4675293,6.38354492 C46.2756348,5.93969727 45.9797363,5.59838867 45.579834,5.35961914 C45.1799316,5.12084961 44.6679688,5.00146484 44.0439453,5.00146484 L41.6928711,5.00146484 L41.6928711,11 L44.0439453,11 Z M43.8154297,9.85302734 L43.1386719,9.85302734 L43.1386719,6.14404297 L43.8154297,6.14404297 C44.1552734,6.14404297 44.4328613,6.21362305 44.6481934,6.3527832 C44.8635254,6.49194336 45.0217285,6.70068359 45.1228027,6.97900391 C45.223877,7.25732422 45.2744141,7.6015625 45.2744141,8.01171875 C45.2744141,8.31933594 45.2458496,8.58813477 45.1887207,8.81811523 C45.1315918,9.0480957 45.0444336,9.23999023 44.9272461,9.39379883 C44.8100586,9.54760742 44.6591797,9.66259766 44.4746094,9.73876953 C44.2900391,9.81494141 44.0703125,9.85302734 43.8154297,9.85302734 Z M48.8251953,11 L49.2163086,9.61572266 L51.0751953,9.61572266 L51.4663086,11 L53,11 L51.0751953,5.00146484 L49.3173828,5.00146484 L47.3837891,11 L48.8251953,11 Z M50.815918,8.57421875 L49.484375,8.57421875 L50.121582,6.29345703 L50.1875,6.29345703 L50.815918,8.57421875 Z M56.2915039,11.1098633 C56.7543945,11.1098633 57.1674805,11.0234375 57.5307617,10.8505859 C57.894043,10.6777344 58.1818848,10.4375 58.3942871,10.1298828 C58.6066895,9.82226562 58.7172852,9.46337891 58.7260742,9.05322266 L58.7260742,8.88183594 L58.7260742,8.88183594 L57.3505859,8.88183594 C57.3388672,9.08105469 57.2905273,9.25830078 57.2055664,9.41357422 C57.1206055,9.56884766 57.0019531,9.69116211 56.8496094,9.78051758 C56.6972656,9.86987305 56.5141602,9.91455078 56.300293,9.91455078 C56.0600586,9.91455078 55.854248,9.85449219 55.6828613,9.734375 C55.5114746,9.61425781 55.3811035,9.43701172 55.291748,9.20263672 C55.2023926,8.96826172 55.1577148,8.68261719 55.1577148,8.34570312 L55.1577148,7.67333984 C55.1577148,7.33349609 55.203125,7.04638672 55.2939453,6.81201172 C55.3847656,6.57763672 55.5151367,6.39819336 55.6850586,6.27368164 C55.8549805,6.14916992 56.0600586,6.08691406 56.300293,6.08691406 C56.5112305,6.08691406 56.6928711,6.13305664 56.8452148,6.2253418 C56.9975586,6.31762695 57.1169434,6.44433594 57.2033691,6.60546875 C57.2897949,6.76660156 57.3388672,6.94970703 57.3505859,7.15478516 L58.7260742,7.15478516 L58.7260742,6.98779297 L58.7260742,6.98779297 C58.7202148,6.67138672 58.6550293,6.38500977 58.5305176,6.12866211 C58.4060059,5.87231445 58.2353516,5.65185547 58.0185547,5.46728516 C57.8017578,5.28271484 57.546875,5.14135742 57.2539062,5.04321289 C56.9609375,4.94506836 56.6401367,4.89599609 56.2915039,4.89599609 C55.7348633,4.89599609 55.2624512,5.00878906 54.8742676,5.234375 C54.486084,5.45996094 54.190918,5.7800293 53.9887695,6.19458008 C53.7866211,6.60913086 53.6855469,7.10205078 53.6855469,7.67333984 L53.6855469,8.34130859 C53.6855469,8.90966797 53.7858887,9.40039062 53.9865723,9.81347656 C54.1872559,10.2265625 54.4816895,10.5458984 54.869873,10.7714844 C55.2580566,10.9970703 55.7319336,11.1098633 56.2915039,11.1098633 Z M62.6679688,11 L62.6679688,6.18359375 L64.3027344,6.18359375 L64.3027344,5.00146484 L59.5917969,5.00146484 L59.5917969,6.18359375 L61.2265625,6.18359375 L61.2265625,11 L62.6679688,11 Z M69.4575195,11 L69.4575195,9.85302734 L66.8603516,9.85302734 L66.8603516,8.50830078 L69.2949219,8.50830078 L69.2949219,7.45361328 L66.8603516,7.45361328 L66.8603516,6.1484375 L69.4575195,6.1484375 L69.4575195,5.00146484 L65.4321289,5.00146484 L65.4321289,11 L69.4575195,11 Z M73.3027344,11 C73.9208984,11 74.4299316,10.878418 74.829834,10.6352539 C75.2297363,10.3920898 75.5270996,10.043457 75.7219238,9.58935547 C75.916748,9.13525391 76.0141602,8.59765625 76.0141602,7.9765625 C76.0141602,7.35839844 75.9182129,6.82739258 75.7263184,6.38354492 C75.5344238,5.93969727 75.2385254,5.59838867 74.838623,5.35961914 C74.4387207,5.12084961 73.9267578,5.00146484 73.3027344,5.00146484 L70.9516602,5.00146484 L70.9516602,11 L73.3027344,11 Z M73.0742188,9.85302734 L72.3974609,9.85302734 L72.3974609,6.14404297 L73.0742188,6.14404297 C73.4140625,6.14404297 73.6916504,6.21362305 73.9069824,6.3527832 C74.1223145,6.49194336 74.2805176,6.70068359 74.3815918,6.97900391 C74.482666,7.25732422 74.5332031,7.6015625 74.5332031,8.01171875 C74.5332031,8.31933594 74.5046387,8.58813477 74.4475098,8.81811523 C74.3903809,9.0480957 74.3032227,9.23999023 74.1860352,9.39379883 C74.0688477,9.54760742 73.9179688,9.66259766 73.7333984,9.73876953 C73.5488281,9.81494141 73.3291016,9.85302734 73.0742188,9.85302734 Z" id="REDACTED" fill="#FFFFFF" fill-rule="nonzero"></path>
        </g>
    </g>
</svg>